<?xml version="1.0" standalone="no"?>
<!DOCTYPE svg PUBLIC "-//W3C//DTD SVG 20010904//EN"
 "http://www.w3.org/TR/2001/REC-SVG-20010904/DTD/svg10.dtd">
<svg version="1.0" xmlns="http://www.w3.org/2000/svg"
 width="860.000000pt" height="709.000000pt" viewBox="0 0 860.000000 709.000000"
 preserveAspectRatio="xMidYMid meet">

<g transform="translate(0.000000,709.000000) scale(0.100000,-0.100000)"
fill="#000000" stroke="none">
<path d="M1632 5628 l3 -343 205 -5 c200 -5 206 -6 263 -33 71 -36 94 -75 108
-190 6 -52 9 -632 7 -1597 l-3 -1515 -28 -48 c-58 -98 -148 -127 -399 -127
l-158 0 0 -335 0 -335 1190 0 1190 0 0 335 0 335 -157 0 c-266 0 -339 24 -390
129 l-28 56 -3 623 -3 622 204 0 203 0 185 -247 c101 -136 280 -376 396 -533
117 -157 320 -429 452 -605 131 -176 304 -409 385 -517 l148 -198 779 0 779 0
0 334 0 334 -187 5 c-196 5 -253 15 -331 59 -68 37 -139 96 -205 170 -101 112
-1087 1266 -1087 1271 0 3 42 15 93 27 151 37 283 86 442 165 176 88 306 177
429 295 213 204 311 397 351 690 59 431 -90 841 -407 1117 -223 194 -510 318
-843 362 -44 6 -114 16 -155 23 -55 9 -514 13 -1753 15 l-1677 4 2 -343z
m2993 -473 c180 -26 279 -62 388 -142 121 -89 208 -275 207 -444 -1 -86 -29
-202 -66 -278 -55 -112 -141 -193 -274 -258 -208 -103 -293 -114 -937 -120
l-513 -5 0 631 0 631 548 0 c424 0 570 -4 647 -15z"/>
</g>
</svg>
