<?xml version="1.0" standalone="no"?>
<!DOCTYPE svg PUBLIC "-//W3C//DTD SVG 20010904//EN"
 "http://www.w3.org/TR/2001/REC-SVG-20010904/DTD/svg10.dtd">
<svg version="1.0" xmlns="http://www.w3.org/2000/svg"
 width="100.000000pt" height="50.000000pt" viewBox="0 0 100.000000 50.000000"
 preserveAspectRatio="xMidYMid meet">

<g transform="translate(0.000000,50.000000) scale(0.100000,-0.100000)"
fill="#000000" stroke="none">
<path d="M337 430 c-20 -4 -40 -10 -44 -13 -14 -15 -41 -87 -32 -87 5 0 14 11
19 24 13 34 52 58 119 72 52 12 53 12 16 12 -22 0 -57 -4 -78 -8z"/>
<path d="M610 413 c44 -7 90 -24 92 -34 4 -28 1 -34 -22 -40 -20 -6 -17 -7 18
-8 23 -1 42 2 42 5 0 4 -9 21 -20 39 -20 33 -54 46 -109 44 l-26 -2 25 -4z"/>
<path d="M187 353 c-12 -11 -8 -23 9 -23 8 0 12 5 8 11 -4 8 1 9 16 4 15 -5
20 -4 16 4 -8 12 -39 15 -49 4z"/>
<path d="M760 352 c0 -6 10 -8 23 -5 22 5 22 5 2 -11 l-20 -17 20 3 c27 4 25
32 -2 36 -13 2 -23 -1 -23 -6z"/>
<path d="M335 334 c-49 -11 -105 -27 -102 -30 2 -2 38 3 81 11 43 8 96 14 119
13 l42 -1 -45 -7 c-44 -7 -44 -7 -9 -8 47 -2 99 8 99 19 0 9 -146 11 -185 3z"/>
<path d="M755 295 c-35 -16 -145 -20 -145 -5 0 6 -11 10 -25 10 -35 0 -31 -16
6 -29 44 -15 89 -14 139 4 23 8 53 15 67 15 14 0 21 4 18 10 -8 13 -23 12 -60
-5z"/>
<path d="M57 223 c-4 -3 -7 -28 -7 -55 0 -41 3 -48 20 -48 14 0 20 7 21 23 l0
22 16 -23 c8 -12 24 -22 35 -22 16 0 17 3 8 20 -8 14 -7 25 2 39 17 28 -5 51
-52 51 -20 0 -40 -3 -43 -7z m63 -33 c0 -5 -7 -10 -15 -10 -8 0 -15 5 -15 10
0 6 7 10 15 10 8 0 15 -4 15 -10z"/>
<path d="M180 175 c0 -42 3 -55 15 -55 12 0 15 13 15 55 0 42 -3 55 -15 55
-12 0 -15 -13 -15 -55z"/>
<path d="M240 175 l0 -55 38 0 c47 0 62 14 62 57 0 37 -21 53 -69 53 -31 0
-31 0 -31 -55z m65 0 c0 -11 -8 -21 -17 -23 -14 -3 -18 3 -18 23 0 20 4 26 18
23 9 -2 17 -12 17 -23z"/>
<path d="M360 176 l0 -56 51 0 c56 0 65 20 13 31 l-29 7 28 1 c34 1 32 23 -4
32 -24 6 -24 6 4 10 45 7 36 24 -15 27 l-48 3 0 -55z"/>
<path d="M480 175 c0 -42 3 -55 15 -55 8 0 15 9 15 20 0 11 4 20 9 20 5 0 13
-9 16 -20 3 -11 15 -20 26 -20 21 0 25 10 8 27 -8 8 -7 16 2 31 19 30 -3 52
-52 52 l-39 0 0 -55z m60 15 c0 -5 -4 -10 -9 -10 -6 0 -13 5 -16 10 -3 6 1 10
9 10 9 0 16 -4 16 -10z"/>
<path d="M610 215 c-7 -8 -12 -26 -12 -40 0 -14 5 -32 12 -40 16 -19 64 -19
80 0 16 20 4 32 -18 19 -24 -15 -42 -6 -42 22 0 17 6 24 20 24 11 0 20 -4 20
-10 0 -5 7 -10 15 -10 18 0 20 21 3 38 -17 17 -63 15 -78 -3z"/>
<path d="M733 175 c-22 -59 -16 -69 28 -42 17 10 23 10 26 0 3 -7 14 -13 25
-13 15 0 18 4 12 23 -32 106 -61 116 -91 32z m43 -12 c-10 -10 -19 5 -10 18 6
11 8 11 12 0 2 -7 1 -15 -2 -18z"/>
<path d="M850 175 c0 -42 3 -55 15 -55 8 0 15 9 15 20 0 11 4 20 9 20 5 0 13
-9 16 -20 4 -11 15 -20 26 -20 17 0 18 3 9 20 -8 14 -7 25 2 39 18 29 -5 51
-53 51 l-39 0 0 -55z m60 15 c0 -5 -7 -10 -15 -10 -8 0 -15 5 -15 10 0 6 7 10
15 10 8 0 15 -4 15 -10z"/>
</g>
</svg>
